{
  "source": "C:\\Users\\Peter\\Desktop\\stuff\\MIUN\\quantitative_research\\video_compression\\videos\\BVI-HD\\BVI-HD_CDVL_videos\\ORIG\\Music_1920x1080_30fps.mp4",
  "output": "C:\\Users\\Peter\\Desktop\\stuff\\MIUN\\quantitative_research\\video_compression\\compressed_videos\\BVI-HD\\vp9\\1\\Music_1920x1080_30fps_vp9.webm",
  "codec": "vp9",
  "ok": "Input #0, mov,mp4,m4a,3gp,3g2,mj2, from 'C:\\Users\\Peter\\Desktop\\stuff\\MIUN\\quantitative_research\\video_compression\\videos\\BVI-HD\\BVI-HD_CDVL_videos\\ORIG\\Music_1920x1080_30fps.mp4':\n  Metadata:\n    major_brand     : isom\n    minor_version   : 512\n    compatible_brands: isomiso2avc1mp41\n    encoder         : Lavf54.28.101\n  Duration: 00:00:05.00, start: 0.000000, bitrate: 192710 kb/s\n  Stream #0:0[0x1](und): Video: h264 (High 4:4:4 Predictive) (avc1 / 0x31637661), yuv420p(progressive), 1920x1080, 192707 kb/s, 30 fps, 30 tbr, 30 tbn (default)\n    Metadata:\n      handler_name    : VideoHandler\n      vendor_id       : [0][0][0][0]\n[out#0/webm @ 0000017e147adac0] Codec AVOption b:a (set bitrate (in bits/s)) has not been used for any stream. The most likely reason is either wrong type (e.g. a video option with no video streams) or that it is a private option of some decoder which was not actually used for any stream.\nStream mapping:\n  Stream #0:0 -> #0:0 (h264 (native) -> vp9 (libvpx-vp9))\nPress [q] to stop, [?] for help\n[libvpx-vp9 @ 0000017e148207c0] v1.15.2-100-g40561f514\nOutput #0, webm, to 'C:\\Users\\Peter\\Desktop\\stuff\\MIUN\\quantitative_research\\video_compression\\compressed_videos\\BVI-HD\\vp9\\1\\Music_1920x1080_30fps_vp9.webm':\n  Metadata:\n    major_brand     : isom\n    minor_version   : 512\n    compatible_brands: isomiso2avc1mp41\n    encoder         : Lavf62.3.100\n  Stream #0:0(und): Video: vp9, yuv420p(tv, progressive), 1920x1080, q=2-31, 1000 kb/s, 30 fps, 1k tbn (default)\n    Metadata:\n      encoder         : Lavc62.11.100 libvpx-vp9\n      handler_name    : VideoHandler\n      vendor_id       : [0][0][0][0]\n    Side data:\n      cpb: bitrate max/min/avg: 0/0/0 buffer size: 1000000 vbv_delay: N/A\nframe=    0 fps=0.0 q=0.0 size=       0KiB time=N/A bitrate=N/A speed=N/A elapsed=0:00:00.51    \nframe=   10 fps=8.7 q=55.0 size=       1KiB time=00:00:00.33 bitrate=  15.2kbits/s speed=0.289x elapsed=0:00:01.15    \nframe=   18 fps= 10 q=53.0 size=       1KiB time=00:00:00.60 bitrate=   8.5kbits/s speed=0.35x elapsed=0:00:01.71    \nframe=   25 fps= 11 q=55.0 size=       1KiB time=00:00:00.83 bitrate=   6.1kbits/s speed=0.373x elapsed=0:00:02.23    \nframe=   31 fps= 11 q=32.0 size=       1KiB time=00:00:01.03 bitrate=   4.9kbits/s speed=0.372x elapsed=0:00:02.77    \nframe=   37 fps= 11 q=59.0 size=       1KiB time=00:00:01.20 bitrate=   4.2kbits/s speed=0.361x elapsed=0:00:03.32    \nframe=   40 fps= 10 q=58.0 size=       1KiB time=00:00:01.33 bitrate=   3.8kbits/s speed=0.341x elapsed=0:00:03.90    \nframe=   44 fps=9.9 q=55.0 size=       1KiB time=00:00:01.46 bitrate=   3.5kbits/s speed=0.33x elapsed=0:00:04.44    \nframe=   49 fps=9.9 q=56.0 size=       1KiB time=00:00:01.63 bitrate=   3.1kbits/s speed=0.328x elapsed=0:00:04.97    \nframe=   53 fps=9.6 q=56.0 size=       1KiB time=00:00:01.76 bitrate=   2.9kbits/s speed=0.32x elapsed=0:00:05.52    \nframe=   59 fps=9.8 q=57.0 size=       1KiB time=00:00:01.96 bitrate=   2.6kbits/s speed=0.325x elapsed=0:00:06.04    \nframe=   63 fps=9.6 q=57.0 size=       1KiB time=00:00:02.10 bitrate=   2.4kbits/s speed=0.319x elapsed=0:00:06.57    \nframe=   68 fps=9.6 q=56.0 size=       1KiB time=00:00:02.26 bitrate=   2.2kbits/s speed=0.32x elapsed=0:00:07.07    \nframe=   72 fps=9.5 q=57.0 size=       1KiB time=00:00:02.40 bitrate=   2.1kbits/s speed=0.316x elapsed=0:00:07.59    \nframe=   78 fps=9.6 q=57.0 size=       1KiB time=00:00:02.60 bitrate=   2.0kbits/s speed=0.319x elapsed=0:00:08.14    \nframe=   83 fps=9.5 q=55.0 size=       1KiB time=00:00:02.73 bitrate=   1.9kbits/s speed=0.314x elapsed=0:00:08.71    \nframe=   89 fps=9.6 q=57.0 size=       1KiB time=00:00:02.96 bitrate=   1.7kbits/s speed=0.319x elapsed=0:00:09.29    \nframe=   94 fps=9.5 q=55.0 size=       1KiB time=00:00:03.13 bitrate=   1.6kbits/s speed=0.318x elapsed=0:00:09.84    \nframe=   99 fps=9.5 q=57.0 size=       1KiB time=00:00:03.30 bitrate=   1.5kbits/s speed=0.318x elapsed=0:00:10.38    \nframe=  104 fps=9.5 q=56.0 size=       1KiB time=00:00:03.46 bitrate=   1.5kbits/s speed=0.318x elapsed=0:00:10.90    \nframe=  109 fps=9.5 q=58.0 size=       1KiB time=00:00:03.63 bitrate=   1.4kbits/s speed=0.318x elapsed=0:00:11.42    \nframe=  114 fps=9.5 q=57.0 size=       1KiB time=00:00:03.80 bitrate=   1.3kbits/s speed=0.318x elapsed=0:00:11.94    \nframe=  119 fps=9.5 q=57.0 size=       1KiB time=00:00:03.96 bitrate=   1.3kbits/s speed=0.318x elapsed=0:00:12.46    \nframe=  124 fps=9.5 q=57.0 size=       1KiB time=00:00:04.13 bitrate=   1.2kbits/s speed=0.318x elapsed=0:00:13.01    \nframe=  126 fps=9.3 q=57.0 size=       1KiB time=00:00:04.20 bitrate=   1.2kbits/s speed=0.31x elapsed=0:00:13.56    \nframe=  126 fps=9.0 q=57.0 size=       1KiB time=00:00:04.20 bitrate=   1.2kbits/s speed=0.298x elapsed=0:00:14.07    \nframe=  126 fps=8.6 q=57.0 size=       1KiB time=00:00:04.20 bitrate=   1.2kbits/s speed=0.287x elapsed=0:00:14.61    \nframe=  126 fps=8.3 q=57.0 size=       1KiB time=00:00:04.20 bitrate=   1.2kbits/s speed=0.276x elapsed=0:00:15.20    \n[out#0/webm @ 0000017e147adac0] video:514KiB audio:0KiB subtitle:0KiB other streams:0KiB global headers:0KiB muxing overhead: 0.332009%\nframe=  150 fps=9.7 q=50.0 Lsize=     516KiB time=00:00:05.00 bitrate= 845.7kbits/s speed=0.323x elapsed=0:00:15.47    \n",
  "seconds": 16.080204486846924,
  "probe_out": {}
}